<svg class="sc" width="92" height="72" viewBox="0 0 92 72" fill="none" aria-hidden="true" xmlns="http://www.w3.org/2000/svg"><path d="M90.1045 11.2663C89.0443 6.86082 85.9368 3.38804 81.9961 2.20179C74.7967 0 45.999 0 45.999 0C45.999 0 17.2023 0 10.003 2.11831C6.13802 3.30331 2.95474 6.86145 1.89458 11.2663C0 19.3127 0 36 0 36C0 36 0 52.7714 1.89458 60.7337C2.95586 65.1385 6.06222 68.6113 10.0036 69.7976C17.2781 72 46.0001 72 46.0001 72C46.0001 72 74.7967 72 81.9961 69.8817C85.9374 68.6961 89.0443 65.2233 90.1056 60.8185C91.9996 52.7714 91.9996 36.0847 91.9996 36.0847C91.9996 36.0847 92.0754 19.3127 90.1045 11.2663Z" fill="white" fill-opacity="0.3"></path><path d="M84.3517 15.3886C83.4298 11.7173 80.7277 8.82337 77.3009 7.83482C71.0406 6 45.9991 6 45.9991 6C45.9991 6 20.9585 6 14.6983 7.76526C11.3374 8.75276 8.56934 11.7179 7.64746 15.3886C6 22.0939 6 36 6 36C6 36 6 49.9761 7.64746 56.6114C8.57032 60.2821 11.2715 63.1761 14.6987 64.1646C21.0244 66 46.0001 66 46.0001 66C46.0001 66 71.0406 66 77.3009 64.2347C80.7282 63.2467 83.4298 60.3527 84.3527 56.682C85.9997 49.9762 85.9997 36.0706 85.9997 36.0706C85.9997 36.0706 86.0656 22.0939 84.3517 15.3886Z" fill="white" fill-opacity="0.9"></path><path fillRule="evenodd" clipRule="evenodd" class="Dc" d="M62 36L36 22V50L62 36Z" fill="#CE1037"></path></svg>