<svg width="9" height="19" viewBox="0 0 9 19" fill="none" xmlns="http://www.w3.org/2000/svg" aria-hidden="true"><path opacity="0.25" d="M3.62747 17.1635C2.98545 18.0623 1.73635 18.2705 0.837524 17.6284C-0.0613015 16.9864 -0.269485 15.7373 0.372533 14.8385L3.62747 17.1635ZM7 9.00098L8.62747 7.8385C9.12418 8.5339 9.12418 9.46806 8.62747 10.1635L7 9.00098ZM0.372533 3.16345C-0.269485 2.26463 -0.0613015 1.01553 0.837524 0.373509C1.73635 -0.268509 2.98545 -0.0603256 3.62747 0.8385L0.372533 3.16345ZM0.372533 14.8385L5.37253 7.8385L8.62747 10.1635L3.62747 17.1635L0.372533 14.8385ZM5.37253 10.1635L0.372533 3.16345L3.62747 0.8385L8.62747 7.8385L5.37253 10.1635Z" fill="#262626"></path></svg>